<?xml version="1.0" encoding="UTF-8" standalone="no"?>
<svg
   version="1.0"
   width="1024.000000pt"
   height="1419.000000pt"
   viewBox="0 0 1024.000000 1419.000000"
   preserveAspectRatio="xMidYMid meet"
   id="svg1"
   sodipodi:docname="icon.svg"
   inkscape:version="1.4.3 (0d15f75, 2025-12-25)"
   xmlns:inkscape="http://www.inkscape.org/namespaces/inkscape"
   xmlns:sodipodi="http://sodipodi.sourceforge.net/DTD/sodipodi-0.dtd"
   xmlns="http://www.w3.org/2000/svg"
   xmlns:svg="http://www.w3.org/2000/svg">
  <defs
     id="defs1" />
  <sodipodi:namedview
     id="namedview1"
     pagecolor="#ffffff"
     bordercolor="#000000"
     borderopacity="0.25"
     inkscape:showpageshadow="2"
     inkscape:pageopacity="0.0"
     inkscape:pagecheckerboard="0"
     inkscape:deskcolor="#d1d1d1"
     inkscape:document-units="pt"
     inkscape:zoom="0.32809929"
     inkscape:cx="717.77053"
     inkscape:cy="670.52873"
     inkscape:window-width="1710"
     inkscape:window-height="1045"
     inkscape:window-x="0"
     inkscape:window-y="34"
     inkscape:window-maximized="1"
     inkscape:current-layer="svg1" />
  <metadata
     id="metadata1">
Created by potrace 1.16, written by Peter Selinger 2001-2019
</metadata>
  <g
     transform="translate(0.000000,1419.000000) scale(0.100000,-0.100000)"
     fill="#000000"
     stroke="none"
     id="g1"
     style="fill:#aa0000">
    <path
       d="M1870 14164 c-677 -226 -1096 -941 -1215 -2074 -18 -177 -39 -696 -30 -765 23 -186 242 -318 593 -357 l107 -11 135 53 c296 116 642 216 915 264 217 38 382 49 614 43 315 -8 508 -48 873 -180 l198 -72 -238 -12 c-497 -26 -935 -95 -1345 -212 -181 -52 -399 -164 -902 -466 -527 -316 -1221 -774 -1471 -973 -99 -78 -129 -194 -81 -312 62 -151 212 -307 612 -640 423 -351 528 -463 639 -680 222 -433 464 -1229 541 -1780 13 -97 108 -1235 437 -5253 23 -284 45 -514 49 -510 4 5 12 100 18 213 50 904 39 2815 -24 4275 -18 407 -14 370 -76 825 -26 201 -87 664 -134 1030 -132 1025 -187 1403 -243 1674 l-27 129 -105 62 c-58 34 -211 122 -340 195 -451 255 -660 411 -660 495 0 24 91 116 204 207 185 149 484 339 1171 743 357 210 576 343 736 447 172 111 349 172 593 204 139 19 362 14 536 -11 171 -24 163 -16 94 -87 -167 -170 -489 -407 -704 -517 -58 -30 -142 -64 -194 -77 -260 -69 -416 -213 -477 -441 -25 -93 -30 -295 -10 -413 30 -177 88 -374 171 -580 98 -243 326 -994 459 -1510 223 -869 374 -1737 421 -2425 11 -159 40 -792 65 -1415 49 -1200 70 -1647 100 -2135 29 -450 78 -1026 94 -1090 7 -26 8 -23 14 30 14 121 37 436 49 670 22 423 12 3647 -13 4020 -24 368 -76 802 -209 1740 -128 904 -158 1179 -175 1597 l-7 158 -84 82 c-144 140 -224 276 -270 457 -29 113 -33 321 -9 436 83 392 360 746 728 931 78 40 250 100 315 110 51 8 50 10 23 -146 -25 -140 -64 -237 -173 -426 -50 -88 -104 -186 -120 -220 l-28 -60 15 -150 c80 -793 396 -1803 751 -2394 l69 -115 3 98 3 97 264 0 264 0 3 -97 3 -98 59 95 c354 567 691 1642 766 2446 l12 121 -37 74 c-20 41 -73 135 -116 209 -103 178 -144 281 -169 428 -11 64 -20 123 -20 131 0 20 71 8 199 -34 445 -149 799 -544 891 -995 30 -147 25 -345 -14 -473 -52 -175 -136 -309 -276 -440 l-80 -75 0 -145 c0 -302 -38 -660 -171 -1597 -100 -711 -147 -1075 -185 -1450 -24 -238 -26 -310 -36 -1065 -16 -1219 -16 -2978 0 -3270 14 -252 49 -695 56 -702 16 -16 80 747 116 1382 21 383 47 954 80 1775 41 1024 66 1509 91 1760 100 1009 349 2132 744 3360 36 113 90 266 120 340 62 157 116 329 145 467 30 139 37 353 17 462 -49 255 -212 416 -491 486 -203 50 -577 294 -849 555 -68 65 -94 96 -85 101 7 4 72 15 143 25 176 25 482 25 610 1 228 -45 356 -95 538 -210 190 -121 360 -224 807 -488 627 -369 888 -536 1080 -690 108 -86 200 -180 200 -204 0 -88 -208 -240 -730 -535 -167 -95 -321 -183 -341 -197 l-37 -24 -31 -162 c-61 -322 -114 -691 -256 -1797 -47 -366 -103 -794 -125 -951 -40 -290 -52 -440 -70 -874 -58 -1411 -67 -3259 -19 -4130 6 -116 15 -217 20 -225 6 -12 8 -10 9 8 0 19 377 4622 445 5432 30 366 63 562 151 912 96 385 277 903 402 1153 117 235 240 370 657 715 497 412 644 590 633 765 -8 123 -40 154 -464 447 -586 407 -1358 879 -1780 1091 -130 65 -334 124 -644 187 -322 64 -564 94 -943 113 l-227 12 198 72 c365 132 558 172 873 180 128 4 258 1 340 -7 353 -32 755 -133 1174 -295 l150 -58 105 11 c285 32 499 134 566 269 17 35 19 64 19 323 -1 306 -12 464 -51 740 -74 522 -218 942 -436 1271 -62 94 -112 154 -207 249 -132 131 -219 196 -360 267 -82 42 -268 109 -277 101 -2 -3 36 -29 86 -58 352 -208 601 -571 720 -1050 66 -263 90 -486 90 -835 0 -333 -34 -742 -66 -792 -7 -11 -37 -33 -66 -47 -47 -23 -70 -27 -198 -32 -176 -8 -238 0 -535 67 -121 28 -256 57 -300 65 -471 84 -972 66 -1605 -57 -58 -11 -113 -23 -123 -25 -30 -9 178 242 251 302 232 193 587 296 1067 310 105 3 204 10 222 16 18 5 44 24 59 41 41 48 31 120 -45 347 -241 716 -518 1165 -796 1290 -113 52 -114 50 -20 -61 303 -358 454 -741 481 -1214 l7 -120 -41 -23 c-49 -27 -111 -39 -267 -52 -163 -14 -246 -28 -335 -58 -182 -60 -398 -197 -619 -392 -85 -75 -98 -83 -201 -119 l-110 -39 0 69 c0 38 -6 85 -14 103 -19 45 -77 101 -134 130 -45 22 -147 56 -171 56 -6 0 9 -37 33 -82 57 -105 86 -194 86 -258 0 -43 -5 -56 -33 -86 l-32 -36 -74 46 c-99 61 -159 80 -231 73 -67 -6 -116 -29 -191 -90 l-54 -44 -45 39 c-25 22 -72 53 -105 69 -104 50 -193 37 -331 -51 -64 -40 -66 -41 -86 -23 -37 33 -51 73 -45 129 6 59 50 174 96 253 18 29 30 56 27 59 -9 8 -96 -18 -161 -49 -113 -52 -164 -126 -165 -236 0 -35 -2 -63 -5 -63 -3 0 -51 16 -106 35 -89 31 -108 42 -182 108 -101 90 -216 178 -327 250 -212 137 -360 185 -639 207 -161 13 -225 25 -268 52 -33 19 -33 20 -33 96 0 42 5 118 10 167 47 419 192 759 465 1084 47 56 85 105 83 106 -7 8 -123 -46 -177 -81 -247 -162 -505 -615 -723 -1267 -67 -200 -77 -270 -45 -318 32 -47 75 -57 282 -63 477 -14 830 -112 1057 -295 85 -68 307 -328 271 -317 -36 10 -282 55 -413 75 -579 87 -1017 78 -1495 -30 -445 -102 -393 -93 -595 -93 -208 0 -248 8 -305 57 l-39 33 -17 155 c-105 916 13 1636 344 2106 115 163 327 352 485 432 77 39 51 41 -58 5z"
       id="path1"
       style="fill:#aa0000" />
  </g>
</svg>
